<?xml version="1.0" standalone="no"?>
<!DOCTYPE svg PUBLIC "-//W3C//DTD SVG 20010904//EN"
 "http://www.w3.org/TR/2001/REC-SVG-20010904/DTD/svg10.dtd">
<svg version="1.0" xmlns="http://www.w3.org/2000/svg"
 width="109.000000pt" height="109.000000pt" viewBox="0 0 109.000000 109.000000"
 preserveAspectRatio="xMidYMid meet">
<metadata>
Created by potrace 1.11, written by Peter Selinger 2001-2013
</metadata>
<g transform="translate(0.000000,109.000000) scale(0.100000,-0.100000)"
fill="#000000" stroke="none">
<path d="M9 1051 c-1 -45 0 -1034 0 -1042 1 -4 241 -6 533 -5 l533 1 0 540 0
540 -532 1 -533 2 -1 -37z m479 -507 l-3 -456 -145 0 c-80 0 -168 1 -197 1
l-52 1 0 454 0 454 199 1 200 1 -2 -456z m500 1 l-1 -455 -26 -1 c-37 -1 -267
-1 -323 0 l-47 1 1 448 c1 246 3 450 5 455 2 4 91 7 198 7 l194 0 -1 -455z"/>
</g>
</svg>
